# WaveFront *.obj file (generated by Autodesk ATF)

mtllib rotator_sharp.mtl

g Solid1

v -0.050000 0.080000 -0.025000
v -0.050000 0.080000 0.025000
v -0.050000 0.123301 0.000000
v -0.025000 0.000000 0.000000
v -0.025000 0.080000 0.000000
v -0.024692 0.080000 -0.003911
v -0.024692 0.080000 0.003911
v -0.024676 0.000000 -0.004010
v -0.024676 0.000000 0.004010
v -0.023776 0.080000 -0.007725
v -0.023776 0.080000 0.007725
v -0.023713 0.000000 -0.007917
v -0.023713 0.000000 0.007917
v -0.022275 0.080000 -0.011350
v -0.022275 0.080000 0.011350
v -0.022136 0.000000 -0.011618
v -0.022136 0.000000 0.011618
v -0.020225 0.080000 -0.014695
v -0.020225 0.080000 0.014695
v -0.019986 0.000000 -0.015019
v -0.019986 0.000000 0.015019
v -0.017678 0.080000 -0.017678
v -0.017678 0.080000 0.017678
v -0.017318 0.000000 -0.018030
v -0.017318 0.000000 0.018030
v -0.014695 0.080000 -0.020225
v -0.014695 0.080000 0.020225
v -0.014202 0.000000 -0.020575
v -0.014202 0.000000 0.020575
v -0.011350 0.080000 -0.022275
v -0.011350 0.080000 0.022275
v -0.010717 0.000000 -0.022586
v -0.010717 0.000000 0.022586
v -0.007725 0.080000 -0.023776
v -0.007725 0.080000 0.023776
v -0.006955 0.000000 -0.024013
v -0.006955 0.000000 0.024013
v -0.003911 0.080000 -0.024692
v -0.003911 0.080000 0.024692
v -0.003013 0.000000 -0.024818
v -0.003013 0.000000 0.024818
v 0.000000 0.080000 -0.025000
v 0.000000 0.080000 0.025000
v 0.001007 0.000000 -0.024980
v 0.001007 0.000000 0.024980
v 0.003911 0.080000 -0.024692
v 0.003911 0.080000 0.024692
v 0.005001 0.000000 -0.024495
v 0.005001 0.000000 0.024495
v 0.007725 0.080000 -0.023776
v 0.007725 0.080000 0.023776
v 0.008865 0.000000 -0.023375
v 0.008865 0.000000 0.023375
v 0.011350 0.080000 -0.022275
v 0.011350 0.080000 0.022275
v 0.012500 0.000000 -0.021651
v 0.012500 0.000000 0.021651
v 0.014695 0.080000 -0.020225
v 0.014695 0.080000 0.020225
v 0.015811 0.000000 -0.019365
v 0.015811 0.000000 0.019365
v 0.017678 0.080000 -0.017678
v 0.017678 0.080000 0.017678
v 0.018713 0.000000 -0.016578
v 0.018713 0.000000 0.016578
v 0.020225 0.080000 -0.014695
v 0.020225 0.080000 0.014695
v 0.021130 0.000000 -0.013362
v 0.021130 0.000000 0.013362
v 0.022275 0.080000 -0.011350
v 0.022275 0.080000 0.011350
v 0.022999 0.000000 -0.009799
v 0.022999 0.000000 0.009799
v 0.023776 0.080000 -0.007725
v 0.023776 0.080000 0.007725
v 0.024274 0.000000 -0.005983
v 0.024274 0.000000 0.005983
v 0.024692 0.080000 -0.003911
v 0.024692 0.080000 0.003911
v 0.024919 0.000000 -0.002012
v 0.024919 0.000000 0.002012
v 0.025000 0.080000 0.000000
v 0.050000 0.080000 -0.025000
v 0.050000 0.080000 0.025000
v 0.050000 0.123301 0.000000
vt 0.000000 5.000000 0.000000
vt 0.030779 5.391086 0.000000
vt 0.122359 5.772542 0.000000
vt 0.272484 6.134976 0.000000
vt 0.477458 6.469463 0.000000
vt 0.732233 6.767767 0.000000
vt 1.030537 7.022542 0.000000
vt 1.365024 7.227516 0.000000
vt 1.727458 7.377641 0.000000
vt 2.108914 7.469221 0.000000
vt 2.500000 7.500000 0.000000
vt 2.891086 7.469221 0.000000
vt 3.272542 7.377641 0.000000
vt 3.634976 7.227516 0.000000
vt 3.969463 7.022542 0.000000
vt 4.267767 6.767767 0.000000
vt 4.522542 6.469463 0.000000
vt 4.727516 6.134976 0.000000
vt 4.877641 5.772542 0.000000
vt 4.969221 5.391086 0.000000
vt 5.000000 5.000000 0.000000
vt 5.000000 10.000000 0.000000
vt 0.000000 10.000000 0.000000
vt 5.000000 5.000000 0.000000
vt 4.969221 4.608914 0.000000
vt 4.877641 4.227458 0.000000
vt 4.727516 3.865024 0.000000
vt 4.522542 3.530537 0.000000
vt 4.267767 3.232233 0.000000
vt 3.969463 2.977458 0.000000
vt 3.634976 2.772484 0.000000
vt 3.272542 2.622359 0.000000
vt 2.891086 2.530779 0.000000
vt 2.500000 2.500000 0.000000
vt 2.108914 2.530779 0.000000
vt 1.727458 2.622359 0.000000
vt 1.365024 2.772484 0.000000
vt 1.030537 2.977458 0.000000
vt 0.732233 3.232233 0.000000
vt 0.477458 3.530537 0.000000
vt 0.272484 3.865024 0.000000
vt 0.122359 4.227458 0.000000
vt 0.030779 4.608914 0.000000
vt 0.000000 5.000000 0.000000
vt 0.000000 0.000000 0.000000
vt 5.000000 0.000000 0.000000
vt 0.000000 0.000000 0.000000
vt 5.000000 0.000000 0.000000
vt 5.000000 5.000000 0.000000
vt 5.000000 10.000000 0.000000
vt 0.000000 10.000000 0.000000
vt 0.000000 0.000000 0.000000
vt 5.000000 0.000000 0.000000
vt 5.000000 10.000000 0.000000
vt 0.000000 10.000000 0.000000
vt 0.000000 5.000000 0.000000
vt 0.000000 2.165064 0.000000
vt -2.500000 -2.165064 0.000000
vt 2.500000 -2.165064 0.000000
vt 2.500000 -2.165064 0.000000
vt 0.000000 2.165064 0.000000
vt -2.500000 -2.165064 0.000000
vt -8.000000 3.926991 0.000000
vt -8.000000 3.534292 0.000000
vt -8.000000 3.141593 0.000000
vt -8.000000 2.748893 0.000000
vt -8.000000 2.356194 0.000000
vt -8.000000 1.963495 0.000000
vt -8.000000 1.570796 0.000000
vt -8.000000 1.178097 0.000000
vt -8.000000 0.785398 0.000000
vt -8.000000 0.392699 0.000000
vt -8.000000 0.000000 0.000000
vt -8.000000 -0.392699 0.000000
vt -8.000000 -0.785398 0.000000
vt -8.000000 -1.178097 0.000000
vt -8.000000 -1.570796 0.000000
vt -8.000000 -1.963495 0.000000
vt -8.000000 -2.356194 0.000000
vt -8.000000 -2.748893 0.000000
vt -8.000000 -3.141593 0.000000
vt -8.000000 -3.534292 0.000000
vt -8.000000 -3.926991 0.000000
vt -8.000000 -4.319690 0.000000
vt -8.000000 -4.712389 0.000000
vt -8.000000 -5.105088 0.000000
vt -8.000000 -5.497787 0.000000
vt -8.000000 -5.890486 0.000000
vt -8.000000 -6.283185 0.000000
vt -8.000000 -6.675884 0.000000
vt -8.000000 -7.068583 0.000000
vt -8.000000 -7.461283 0.000000
vt -8.000000 7.853982 0.000000
vt -8.000000 7.461283 0.000000
vt -8.000000 7.068583 0.000000
vt -8.000000 6.675884 0.000000
vt -8.000000 6.283185 0.000000
vt -8.000000 5.890486 0.000000
vt -8.000000 5.497787 0.000000
vt -8.000000 5.105088 0.000000
vt -8.000000 4.712389 0.000000
vt -8.000000 4.319690 0.000000
vt -0.000000 0.000000 0.000000
vt -0.000000 0.402768 0.000000
vt -0.000000 0.805537 0.000000
vt -0.000000 1.208305 0.000000
vt -0.000000 1.611073 0.000000
vt -0.000000 2.013841 0.000000
vt -0.000000 2.416610 0.000000
vt -0.000000 2.819378 0.000000
vt -0.000000 3.222146 0.000000
vt -0.000000 3.624915 0.000000
vt -0.000000 4.027683 0.000000
vt -0.000000 4.430451 0.000000
vt -0.000000 4.833220 0.000000
vt -0.000000 5.235988 0.000000
vt -0.000000 5.638756 0.000000
vt -0.000000 6.041524 0.000000
vt -0.000000 6.444293 0.000000
vt -0.000000 6.847061 0.000000
vt -0.000000 7.249829 0.000000
vt -0.000000 -8.055366 0.000000
vt -0.000000 -7.652597 0.000000
vt -0.000000 -7.249829 0.000000
vt -0.000000 -6.847061 0.000000
vt -0.000000 -6.444293 0.000000
vt -0.000000 -6.041524 0.000000
vt -0.000000 -5.638756 0.000000
vt -0.000000 -5.235988 0.000000
vt -0.000000 -4.833220 0.000000
vt -0.000000 -4.430451 0.000000
vt -0.000000 -4.027683 0.000000
vt -0.000000 -3.624915 0.000000
vt -0.000000 -3.222146 0.000000
vt -0.000000 -2.819378 0.000000
vt -0.000000 -2.416610 0.000000
vt -0.000000 -2.013841 0.000000
vt -0.000000 -1.611073 0.000000
vt -0.000000 -1.208305 0.000000
vt -0.000000 -0.805537 0.000000
vt -0.000000 -0.402768 0.000000
vt -0.000000 7.652598 0.000000
vt -0.000000 7.652598 0.000000
vt -8.000000 -7.853982 0.000000
vt -8.000000 -7.853982 0.000000
vt -0.000000 -2.500000 0.000000
vt 0.401028 -2.467626 0.000000
vt 0.791670 -2.371341 0.000000
vt 1.161808 -2.213640 0.000000
vt 1.501856 -1.998607 0.000000
vt 1.803006 -1.731811 0.000000
vt 2.057460 -1.420162 0.000000
vt 2.258626 -1.071731 0.000000
vt 2.401295 -0.695544 0.000000
vt 2.481772 -0.301342 0.000000
vt 2.497972 0.100665 0.000000
vt 2.449477 0.500064 0.000000
vt 2.337541 0.886512 0.000000
vt 2.165064 1.250000 0.000000
vt 1.936512 1.581113 0.000000
vt 1.657807 1.871277 0.000000
vt 1.336165 2.112975 0.000000
vt 0.979917 2.299949 0.000000
vt 0.598289 2.427355 0.000000
vt 0.201166 2.491893 0.000000
vt -0.201166 2.491893 0.000000
vt -0.598289 2.427355 0.000000
vt -0.979917 2.299949 0.000000
vt -1.336165 2.112975 0.000000
vt -1.657807 1.871277 0.000000
vt -1.936512 1.581113 0.000000
vt -2.165064 1.250000 0.000000
vt -2.337541 0.886512 0.000000
vt -2.449477 0.500064 0.000000
vt -2.497972 0.100665 0.000000
vt -2.481772 -0.301342 0.000000
vt -2.401295 -0.695544 0.000000
vt -2.258626 -1.071731 0.000000
vt -2.057460 -1.420162 0.000000
vt -1.803006 -1.731811 0.000000
vt -1.501856 -1.998607 0.000000
vt -1.161808 -2.213640 0.000000
vt -0.791670 -2.371341 0.000000
vt -0.401028 -2.467626 0.000000
vn 0.000000 -100.000000 0.000000
vn 0.000000 -100.000000 0.000000
vn 0.000000 -100.000000 0.000000
vn 0.000000 -100.000000 0.000000
vn 0.000000 -100.000000 0.000000
vn 0.000000 -100.000000 0.000000
vn 0.000000 -100.000000 0.000000
vn 0.000000 -100.000000 0.000000
vn 0.000000 -100.000000 0.000000
vn 0.000000 -100.000000 0.000000
vn 0.000000 -100.000000 0.000000
vn 0.000000 -100.000000 0.000000
vn 0.000000 -100.000000 0.000000
vn 0.000000 -100.000000 0.000000
vn 0.000000 -100.000000 0.000000
vn 0.000000 -100.000000 0.000000
vn 0.000000 -100.000000 0.000000
vn 0.000000 -100.000000 0.000000
vn 0.000000 -100.000000 0.000000
vn 0.000000 -100.000000 0.000000
vn 0.000000 -100.000000 0.000000
vn 0.000000 -100.000000 0.000000
vn 0.000000 -100.000000 0.000000
vn 0.000000 -100.000000 0.000000
vn 0.000000 -100.000000 0.000000
vn 0.000000 -100.000000 0.000000
vn 0.000000 -100.000000 0.000000
vn 0.000000 -100.000000 0.000000
vn 0.000000 -100.000000 0.000000
vn 0.000000 -100.000000 0.000000
vn 0.000000 -100.000000 0.000000
vn 0.000000 -100.000000 0.000000
vn 0.000000 -100.000000 0.000000
vn 0.000000 -100.000000 0.000000
vn 0.000000 -100.000000 0.000000
vn 0.000000 -100.000000 0.000000
vn 0.000000 -100.000000 0.000000
vn 0.000000 -100.000000 0.000000
vn 0.000000 -100.000000 0.000000
vn 0.000000 -100.000000 0.000000
vn 0.000000 -100.000000 0.000000
vn 0.000000 -100.000000 0.000000
vn 0.000000 -100.000000 0.000000
vn 0.000000 -100.000000 0.000000
vn 0.000000 -100.000000 0.000000
vn 0.000000 -100.000000 0.000000
vn 0.000000 50.000000 86.602539
vn 0.000000 50.000000 86.602539
vn 0.000000 50.000000 86.602539
vn 0.000000 50.000000 86.602539
vn 0.000000 50.000000 86.602539
vn 0.000000 50.000000 -86.602539
vn 0.000000 50.000000 -86.602539
vn 0.000000 50.000000 -86.602539
vn 0.000000 50.000000 -86.602539
vn 0.000000 50.000000 -86.602539
vn -100.000000 0.000000 0.000000
vn -100.000000 0.000000 0.000000
vn -100.000000 0.000000 0.000000
vn 100.000000 0.000000 0.000000
vn 100.000000 0.000000 0.000000
vn 100.000000 0.000000 0.000000
vn 0.000000 0.000000 100.000000
vn -15.643446 0.000000 98.768836
vn -30.901700 0.000000 95.105654
vn -45.399049 0.000000 89.100653
vn -58.778524 0.000000 80.901700
vn -70.710677 0.000000 70.710677
vn -80.901700 0.000000 58.778524
vn -89.100653 0.000000 45.399049
vn -95.105654 0.000000 30.901700
vn -98.768836 0.000000 15.643446
vn -100.000000 0.000000 0.000000
vn -98.768836 0.000000 -15.643446
vn -95.105654 0.000000 -30.901700
vn -89.100653 0.000000 -45.399049
vn -80.901700 0.000000 -58.778524
vn -70.710677 0.000000 -70.710677
vn -58.778524 0.000000 -80.901700
vn -45.399049 0.000000 -89.100653
vn -30.901700 0.000000 -95.105654
vn -15.643446 0.000000 -98.768836
vn 0.000000 0.000000 -100.000000
vn 15.643446 0.000000 -98.768836
vn 30.901700 0.000000 -95.105654
vn 45.399049 0.000000 -89.100653
vn 58.778524 0.000000 -80.901700
vn 70.710677 0.000000 -70.710677
vn 80.901700 0.000000 -58.778524
vn 89.100653 0.000000 -45.399049
vn 95.105654 0.000000 -30.901700
vn 98.768836 0.000000 -15.643446
vn 100.000000 0.000000 0.000000
vn 98.768836 0.000000 15.643446
vn 95.105654 0.000000 30.901700
vn 89.100653 0.000000 45.399049
vn 80.901700 0.000000 58.778524
vn 70.710677 0.000000 70.710677
vn 58.778524 0.000000 80.901700
vn 45.399049 0.000000 89.100653
vn 30.901700 0.000000 95.105654
vn 15.643446 0.000000 98.768836
vn -100.000000 0.000000 0.000000
vn -98.705024 0.000000 16.041128
vn -94.853646 0.000000 31.666800
vn -88.545603 0.000000 46.472317
vn -79.944277 0.000000 60.074228
vn -69.272435 0.000000 72.120243
vn -56.806475 0.000000 82.298386
vn -42.869255 0.000000 90.345043
vn -27.821746 0.000000 96.051812
vn -12.053668 0.000000 99.270886
vn 4.026594 0.000000 99.918902
vn 20.002569 0.000000 97.979063
vn 35.460490 0.000000 93.501621
vn 50.000000 0.000000 86.602539
vn 63.244539 0.000000 77.460498
vn 74.851078 0.000000 66.312265
vn 84.519011 0.000000 53.446585
vn 91.997945 0.000000 39.196661
vn 97.094184 0.000000 23.931566
vn 99.675733 0.000000 8.046657
vn 99.675733 0.000000 -8.046657
vn 97.094184 0.000000 -23.931566
vn 91.997945 0.000000 -39.196661
vn 84.519011 0.000000 -53.446585
vn 74.851078 0.000000 -66.312265
vn 63.244539 0.000000 -77.460498
vn 50.000000 0.000000 -86.602539
vn 35.460490 0.000000 -93.501621
vn 20.002569 0.000000 -97.979063
vn 4.026594 0.000000 -99.918902
vn -12.053668 0.000000 -99.270886
vn -27.821746 0.000000 -96.051812
vn -42.869255 0.000000 -90.345043
vn -56.806475 0.000000 -82.298386
vn -69.272435 0.000000 -72.120243
vn -79.944277 0.000000 -60.074228
vn -88.545603 0.000000 -46.472317
vn -94.853646 0.000000 -31.666800
vn -98.705024 0.000000 -16.041128
vn 99.675733 0.000000 8.046657
vn 99.675733 0.000000 8.046657
vn 100.000000 0.000000 0.000000
vn 100.000000 0.000000 0.000000
vn 0.000000 -100.000000 0.000000
vn 0.000000 -100.000000 0.000000
vn 0.000000 -100.000000 0.000000
vn 0.000000 -100.000000 0.000000
vn 0.000000 -100.000000 0.000000
vn 0.000000 -100.000000 0.000000
vn 0.000000 -100.000000 0.000000
vn 0.000000 -100.000000 0.000000
vn 0.000000 -100.000000 0.000000
vn 0.000000 -100.000000 0.000000
vn 0.000000 -100.000000 0.000000
vn 0.000000 -100.000000 0.000000
vn 0.000000 -100.000000 0.000000
vn 0.000000 -100.000000 0.000000
vn 0.000000 -100.000000 0.000000
vn 0.000000 -100.000000 0.000000
vn 0.000000 -100.000000 0.000000
vn 0.000000 -100.000000 0.000000
vn 0.000000 -100.000000 0.000000
vn 0.000000 -100.000000 0.000000
vn 0.000000 -100.000000 0.000000
vn 0.000000 -100.000000 0.000000
vn 0.000000 -100.000000 0.000000
vn 0.000000 -100.000000 0.000000
vn 0.000000 -100.000000 0.000000
vn 0.000000 -100.000000 0.000000
vn 0.000000 -100.000000 0.000000
vn 0.000000 -100.000000 0.000000
vn 0.000000 -100.000000 0.000000
vn 0.000000 -100.000000 0.000000
vn 0.000000 -100.000000 0.000000
vn 0.000000 -100.000000 0.000000
vn 0.000000 -100.000000 0.000000
vn 0.000000 -100.000000 0.000000
vn 0.000000 -100.000000 0.000000
vn 0.000000 -100.000000 0.000000
vn 0.000000 -100.000000 0.000000
vn 0.000000 -100.000000 0.000000
vn 0.000000 -100.000000 0.000000
usemtl 191,191,191
f 43/1/1 47/2/2 84/23/23
f 84/23/23 47/2/2 51/3/3
f 84/23/23 51/3/3 55/4/4
f 55/4/4 59/5/5 84/23/23
f 84/23/23 59/5/5 63/6/6
f 84/23/23 63/6/6 67/7/7
f 67/7/7 71/8/8 84/23/23
f 84/23/23 71/8/8 75/9/9
f 84/23/23 75/9/9 79/10/10
f 79/10/10 82/11/11 84/23/23
f 84/23/23 82/11/11 83/22/22
f 83/22/22 82/11/11 78/12/12
f 83/22/22 78/12/12 74/13/13
f 74/13/13 70/14/14 83/22/22
f 83/22/22 70/14/14 66/15/15
f 83/22/22 66/15/15 62/16/16
f 62/16/16 58/17/17 83/22/22
f 83/22/22 58/17/17 54/18/18
f 83/22/22 54/18/18 50/19/19
f 50/19/19 46/20/20 83/22/22
f 83/22/22 46/20/20 42/21/21
f 42/24/24 38/25/25 1/46/46
f 1/46/46 38/25/25 34/26/26
f 1/46/46 34/26/26 30/27/27
f 30/27/27 26/28/28 1/46/46
f 1/46/46 26/28/28 22/29/29
f 1/46/46 22/29/29 18/30/30
f 18/30/30 14/31/31 1/46/46
f 1/46/46 14/31/31 10/32/32
f 1/46/46 10/32/32 6/33/33
f 6/33/33 5/34/34 1/46/46
f 1/46/46 5/34/34 2/45/45
f 2/45/45 5/34/34 7/35/35
f 2/45/45 7/35/35 11/36/36
f 11/36/36 15/37/37 2/45/45
f 2/45/45 15/37/37 19/38/38
f 2/45/45 19/38/38 23/39/39
f 23/39/39 27/40/40 2/45/45
f 2/45/45 27/40/40 31/41/41
f 2/45/45 31/41/41 35/42/42
f 35/42/42 39/43/43 2/45/45
f 2/45/45 39/43/43 43/44/44
f 2/48/48 43/49/49 3/47/47
f 3/47/47 43/49/49 85/51/51
f 85/51/51 43/49/49 84/50/50
f 1/52/52 3/53/53 42/56/56
f 42/56/56 3/53/53 85/54/54
f 42/56/56 85/54/54 83/55/55
f 3/57/57 1/58/58 2/59/59
f 83/60/60 85/61/61 84/62/62
f 39/64/64 41/112/112 43/63/63
f 43/63/63 41/112/112 45/113/113
f 43/63/63 45/113/113 47/102/102
f 47/102/102 45/113/113 49/114/114
f 47/102/102 49/114/114 51/101/101
f 51/101/101 49/114/114 53/115/115
f 51/101/101 53/115/115 55/100/100
f 55/100/100 53/115/115 57/116/116
f 55/100/100 57/116/116 59/99/99
f 59/99/99 57/116/116 61/117/117
f 59/99/99 61/117/117 63/98/98
f 63/98/98 61/117/117 65/118/118
f 63/98/98 65/118/118 67/97/97
f 67/97/97 65/118/118 69/119/119
f 67/97/97 69/119/119 71/96/96
f 71/96/96 69/119/119 73/120/120
f 71/96/96 73/120/120 75/95/95
f 75/95/95 73/120/120 77/121/121
f 75/95/95 77/121/121 79/94/94
f 79/94/94 77/121/121 81/142/142
f 79/94/94 81/143/143 82/93/93
f 82/144/144 81/122/122 80/123/123
f 82/145/145 80/123/123 78/92/92
f 78/92/92 80/123/123 76/124/124
f 78/92/92 76/124/124 74/91/91
f 74/91/91 76/124/124 72/125/125
f 74/91/91 72/125/125 70/90/90
f 70/90/90 72/125/125 68/126/126
f 70/90/90 68/126/126 66/89/89
f 66/89/89 68/126/126 64/127/127
f 66/89/89 64/127/127 62/88/88
f 62/88/88 64/127/127 60/128/128
f 62/88/88 60/128/128 58/87/87
f 58/87/87 60/128/128 56/129/129
f 58/87/87 56/129/129 54/86/86
f 54/86/86 56/129/129 52/130/130
f 54/86/86 52/130/130 50/85/85
f 50/85/85 52/130/130 48/131/131
f 50/85/85 48/131/131 46/84/84
f 46/84/84 48/131/131 44/132/132
f 46/84/84 44/132/132 42/83/83
f 42/83/83 44/132/132 40/133/133
f 42/83/83 40/133/133 38/82/82
f 38/82/82 40/133/133 36/134/134
f 38/82/82 36/134/134 34/81/81
f 34/81/81 36/134/134 32/135/135
f 34/81/81 32/135/135 30/80/80
f 30/80/80 32/135/135 28/136/136
f 30/80/80 28/136/136 26/79/79
f 26/79/79 28/136/136 24/137/137
f 26/79/79 24/137/137 22/78/78
f 22/78/78 24/137/137 20/138/138
f 22/78/78 20/138/138 18/77/77
f 18/77/77 20/138/138 16/139/139
f 18/77/77 16/139/139 14/76/76
f 14/76/76 16/139/139 12/140/140
f 14/76/76 12/140/140 10/75/75
f 10/75/75 12/140/140 8/141/141
f 10/75/75 8/141/141 6/74/74
f 6/74/74 8/141/141 4/103/103
f 6/74/74 4/103/103 5/73/73
f 5/73/73 4/103/103 7/72/72
f 7/72/72 4/103/103 9/104/104
f 7/72/72 9/104/104 11/71/71
f 11/71/71 9/104/104 13/105/105
f 11/71/71 13/105/105 15/70/70
f 15/70/70 13/105/105 17/106/106
f 15/70/70 17/106/106 19/69/69
f 19/69/69 17/106/106 21/107/107
f 19/69/69 21/107/107 23/68/68
f 23/68/68 21/107/107 25/108/108
f 23/68/68 25/108/108 27/67/67
f 27/67/67 25/108/108 29/109/109
f 27/67/67 29/109/109 31/66/66
f 31/66/66 29/109/109 33/110/110
f 31/66/66 33/110/110 35/65/65
f 35/65/65 33/110/110 37/111/111
f 35/65/65 37/111/111 39/64/64
f 39/64/64 37/111/111 41/112/112
f 4/146/146 8/147/147 9/184/184
f 9/184/184 8/147/147 13/183/183
f 13/183/183 8/147/147 12/148/148
f 13/183/183 12/148/148 17/182/182
f 17/182/182 12/148/148 16/149/149
f 17/182/182 16/149/149 21/181/181
f 21/181/181 16/149/149 20/150/150
f 21/181/181 20/150/150 25/180/180
f 25/180/180 20/150/150 24/151/151
f 25/180/180 24/151/151 29/179/179
f 29/179/179 24/151/151 28/152/152
f 29/179/179 28/152/152 33/178/178
f 33/178/178 28/152/152 32/153/153
f 33/178/178 32/153/153 37/177/177
f 37/177/177 32/153/153 36/154/154
f 37/177/177 36/154/154 41/176/176
f 41/176/176 36/154/154 40/155/155
f 41/176/176 40/155/155 45/175/175
f 45/175/175 40/155/155 44/156/156
f 45/175/175 44/156/156 49/174/174
f 49/174/174 44/156/156 48/157/157
f 49/174/174 48/157/157 53/173/173
f 53/173/173 48/157/157 52/158/158
f 53/173/173 52/158/158 57/172/172
f 57/172/172 52/158/158 56/159/159
f 57/172/172 56/159/159 61/171/171
f 61/171/171 56/159/159 60/160/160
f 61/171/171 60/160/160 65/170/170
f 65/170/170 60/160/160 64/161/161
f 65/170/170 64/161/161 69/169/169
f 69/169/169 64/161/161 68/162/162
f 69/169/169 68/162/162 73/168/168
f 73/168/168 68/162/162 72/163/163
f 73/168/168 72/163/163 77/167/167
f 77/167/167 72/163/163 76/164/164
f 77/167/167 76/164/164 81/166/166
f 81/166/166 76/164/164 80/165/165
# 85 vertices
# 184 texture params
# 184 normals
# 166 facets

# 1 groups
