# WaveFront *.obj file (generated by Autodesk ATF)

mtllib rotator_round.mtl

g Solid1

v -0.050000 0.080000 -0.025000
v -0.050000 0.080000 0.025000
v -0.050000 0.109251 -0.001561
v -0.050000 0.109251 0.001561
v -0.050000 0.109803 -0.000866
v -0.050000 0.109803 0.000866
v -0.050000 0.110000 0.000000
v -0.025000 0.000000 0.000000
v -0.025000 0.080000 0.000000
v -0.024692 0.000000 -0.003911
v -0.024692 0.000000 0.003911
v -0.024692 0.080000 -0.003911
v -0.024692 0.080000 0.003911
v -0.023776 0.000000 -0.007725
v -0.023776 0.000000 0.007725
v -0.023776 0.080000 -0.007725
v -0.023776 0.080000 0.007725
v -0.022275 0.000000 -0.011350
v -0.022275 0.000000 0.011350
v -0.022275 0.080000 -0.011350
v -0.022275 0.080000 0.011350
v -0.020225 0.000000 -0.014695
v -0.020225 0.000000 0.014695
v -0.020225 0.080000 -0.014695
v -0.020225 0.080000 0.014695
v -0.017678 0.000000 -0.017678
v -0.017678 0.000000 0.017678
v -0.017678 0.080000 -0.017678
v -0.017678 0.080000 0.017678
v -0.014695 0.000000 -0.020225
v -0.014695 0.000000 0.020225
v -0.014695 0.080000 -0.020225
v -0.014695 0.080000 0.020225
v -0.011350 0.000000 -0.022275
v -0.011350 0.000000 0.022275
v -0.011350 0.080000 -0.022275
v -0.011350 0.080000 0.022275
v -0.007725 0.000000 -0.023776
v -0.007725 0.000000 0.023776
v -0.007725 0.080000 -0.023776
v -0.007725 0.080000 0.023776
v -0.003911 0.000000 -0.024692
v -0.003911 0.000000 0.024692
v -0.003911 0.080000 -0.024692
v -0.003911 0.080000 0.024692
v 0.000000 0.000000 -0.025000
v 0.000000 0.000000 0.025000
v 0.000000 0.080000 -0.025000
v 0.000000 0.080000 0.025000
v 0.003911 0.000000 -0.024692
v 0.003911 0.000000 0.024692
v 0.003911 0.080000 -0.024692
v 0.003911 0.080000 0.024692
v 0.007725 0.000000 -0.023776
v 0.007725 0.000000 0.023776
v 0.007725 0.080000 -0.023776
v 0.007725 0.080000 0.023776
v 0.011350 0.000000 -0.022275
v 0.011350 0.000000 0.022275
v 0.011350 0.080000 -0.022275
v 0.011350 0.080000 0.022275
v 0.014695 0.000000 -0.020225
v 0.014695 0.000000 0.020225
v 0.014695 0.080000 -0.020225
v 0.014695 0.080000 0.020225
v 0.017678 0.000000 -0.017678
v 0.017678 0.000000 0.017678
v 0.017678 0.080000 -0.017678
v 0.017678 0.080000 0.017678
v 0.020225 0.000000 -0.014695
v 0.020225 0.000000 0.014695
v 0.020225 0.080000 -0.014695
v 0.020225 0.080000 0.014695
v 0.022275 0.000000 -0.011350
v 0.022275 0.000000 0.011350
v 0.022275 0.080000 -0.011350
v 0.022275 0.080000 0.011350
v 0.023776 0.000000 -0.007725
v 0.023776 0.000000 0.007725
v 0.023776 0.080000 -0.007725
v 0.023776 0.080000 0.007725
v 0.024692 0.000000 -0.003911
v 0.024692 0.000000 0.003911
v 0.024692 0.080000 -0.003911
v 0.024692 0.080000 0.003911
v 0.025000 0.000000 0.000000
v 0.025000 0.080000 0.000000
v 0.050000 0.080000 -0.025000
v 0.050000 0.080000 0.025000
v 0.050000 0.109251 -0.001561
v 0.050000 0.109251 0.001561
v 0.050000 0.109803 -0.000866
v 0.050000 0.109803 0.000866
v 0.050000 0.110000 0.000000
vt 0.000000 5.000000 0.000000
vt 0.030779 5.391086 0.000000
vt 0.122359 5.772542 0.000000
vt 0.272484 6.134976 0.000000
vt 0.477458 6.469463 0.000000
vt 0.732233 6.767767 0.000000
vt 1.030537 7.022542 0.000000
vt 1.365024 7.227516 0.000000
vt 1.727458 7.377641 0.000000
vt 2.108914 7.469221 0.000000
vt 2.500000 7.500000 0.000000
vt 2.891086 7.469221 0.000000
vt 3.272542 7.377641 0.000000
vt 3.634976 7.227516 0.000000
vt 3.969463 7.022542 0.000000
vt 4.267767 6.767767 0.000000
vt 4.522542 6.469463 0.000000
vt 4.727516 6.134976 0.000000
vt 4.877641 5.772542 0.000000
vt 4.969221 5.391086 0.000000
vt 5.000000 5.000000 0.000000
vt 5.000000 10.000000 0.000000
vt 0.000000 10.000000 0.000000
vt 5.000000 5.000000 0.000000
vt 4.969221 4.608914 0.000000
vt 4.877641 4.227458 0.000000
vt 4.727516 3.865024 0.000000
vt 4.522542 3.530537 0.000000
vt 4.267767 3.232233 0.000000
vt 3.969463 2.977458 0.000000
vt 3.634976 2.772484 0.000000
vt 3.272542 2.622359 0.000000
vt 2.891086 2.530779 0.000000
vt 2.500000 2.500000 0.000000
vt 2.108914 2.530779 0.000000
vt 1.727458 2.622359 0.000000
vt 1.365024 2.772484 0.000000
vt 1.030537 2.977458 0.000000
vt 0.732233 3.232233 0.000000
vt 0.477458 3.530537 0.000000
vt 0.272484 3.865024 0.000000
vt 0.122359 4.227458 0.000000
vt 0.030779 4.608914 0.000000
vt 0.000000 5.000000 0.000000
vt 0.000000 0.000000 0.000000
vt 5.000000 0.000000 0.000000
vt 0.000000 0.000000 0.000000
vt 3.748333 0.000000 0.000000
vt 3.748333 10.000000 0.000000
vt 0.000000 10.000000 0.000000
vt 0.000000 5.000000 0.000000
vt 0.000000 0.000000 0.000000
vt 3.748333 0.000000 0.000000
vt 3.748333 5.000000 0.000000
vt 3.748333 10.000000 0.000000
vt 0.000000 10.000000 0.000000
vt -0.000000 -0.358099 0.000000
vt -0.000000 -0.268574 0.000000
vt -0.000000 -0.179050 0.000000
vt -0.000000 -0.089525 0.000000
vt -0.000000 0.000000 0.000000
vt -10.000000 0.000000 0.000000
vt -10.000000 -0.089525 0.000000
vt -10.000000 -0.179050 0.000000
vt -10.000000 -0.268574 0.000000
vt -10.000000 -0.358099 0.000000
vt 0.156073 1.425065 0.000000
vt 0.086565 1.480296 0.000000
vt 0.000000 1.500000 0.000000
vt -0.086565 1.480296 0.000000
vt -0.156073 1.425065 0.000000
vt -2.500000 -1.500000 0.000000
vt 2.500000 -1.500000 0.000000
vt 0.156073 1.425065 0.000000
vt 0.086565 1.480296 0.000000
vt -0.000000 1.500000 0.000000
vt -0.086565 1.480296 0.000000
vt -0.156073 1.425065 0.000000
vt -2.500000 -1.500000 0.000000
vt 2.500000 -1.500000 0.000000
vt -8.000000 3.926991 0.000000
vt -8.000000 3.534292 0.000000
vt -8.000000 3.141593 0.000000
vt -8.000000 2.748893 0.000000
vt -8.000000 2.356194 0.000000
vt -8.000000 1.963495 0.000000
vt -8.000000 1.570796 0.000000
vt -8.000000 1.178097 0.000000
vt -8.000000 0.785398 0.000000
vt -8.000000 0.392699 0.000000
vt -8.000000 0.000000 0.000000
vt -8.000000 -0.392699 0.000000
vt -8.000000 -0.785398 0.000000
vt -8.000000 -1.178097 0.000000
vt -8.000000 -1.570796 0.000000
vt -8.000000 -1.963495 0.000000
vt -8.000000 -2.356194 0.000000
vt -8.000000 -2.748893 0.000000
vt -8.000000 -3.141593 0.000000
vt -8.000000 -3.534292 0.000000
vt -8.000000 -3.926991 0.000000
vt -8.000000 -4.319690 0.000000
vt -8.000000 -4.712389 0.000000
vt -8.000000 -5.105088 0.000000
vt -8.000000 -5.497787 0.000000
vt -8.000000 -5.890486 0.000000
vt -8.000000 -6.283185 0.000000
vt -8.000000 -6.675884 0.000000
vt -8.000000 -7.068583 0.000000
vt -8.000000 -7.461283 0.000000
vt -8.000000 7.853982 0.000000
vt -8.000000 7.461283 0.000000
vt -8.000000 7.068583 0.000000
vt -8.000000 6.675884 0.000000
vt -8.000000 6.283185 0.000000
vt -8.000000 5.890486 0.000000
vt -8.000000 5.497787 0.000000
vt -8.000000 5.105088 0.000000
vt -8.000000 4.712389 0.000000
vt -8.000000 4.319690 0.000000
vt -0.000000 0.000000 0.000000
vt -0.000000 0.392699 0.000000
vt -0.000000 0.785398 0.000000
vt -0.000000 1.178097 0.000000
vt -0.000000 1.570796 0.000000
vt -0.000000 1.963495 0.000000
vt -0.000000 2.356194 0.000000
vt -0.000000 2.748893 0.000000
vt -0.000000 3.141593 0.000000
vt -0.000000 3.534292 0.000000
vt -0.000000 3.926991 0.000000
vt -0.000000 4.319690 0.000000
vt -0.000000 4.712389 0.000000
vt -0.000000 5.105088 0.000000
vt -0.000000 5.497787 0.000000
vt -0.000000 5.890486 0.000000
vt -0.000000 6.283185 0.000000
vt -0.000000 6.675884 0.000000
vt -0.000000 7.068583 0.000000
vt -0.000000 7.461283 0.000000
vt -0.000000 -7.853982 0.000000
vt -0.000000 -7.461283 0.000000
vt -0.000000 -7.068583 0.000000
vt -0.000000 -6.675884 0.000000
vt -0.000000 -6.283185 0.000000
vt -0.000000 -5.890486 0.000000
vt -0.000000 -5.497787 0.000000
vt -0.000000 -5.105088 0.000000
vt -0.000000 -4.712389 0.000000
vt -0.000000 -4.319690 0.000000
vt -0.000000 -3.926991 0.000000
vt -0.000000 -3.534292 0.000000
vt -0.000000 -3.141593 0.000000
vt -0.000000 -2.748893 0.000000
vt -0.000000 -2.356194 0.000000
vt -0.000000 -1.963495 0.000000
vt -0.000000 -1.570796 0.000000
vt -0.000000 -1.178097 0.000000
vt -0.000000 -0.785398 0.000000
vt -0.000000 -0.392699 0.000000
vt -0.000000 7.853982 0.000000
vt -8.000000 -7.853982 0.000000
vt -0.000000 -2.500000 0.000000
vt 0.391086 -2.469221 0.000000
vt 0.772542 -2.377641 0.000000
vt 1.134976 -2.227516 0.000000
vt 1.469463 -2.022542 0.000000
vt 1.767767 -1.767767 0.000000
vt 2.022542 -1.469463 0.000000
vt 2.227516 -1.134976 0.000000
vt 2.377641 -0.772542 0.000000
vt 2.469221 -0.391086 0.000000
vt 2.500000 0.000000 0.000000
vt 2.469221 0.391086 0.000000
vt 2.377641 0.772542 0.000000
vt 2.227516 1.134976 0.000000
vt 2.022542 1.469463 0.000000
vt 1.767767 1.767767 0.000000
vt 1.469463 2.022542 0.000000
vt 1.134976 2.227516 0.000000
vt 0.772542 2.377641 0.000000
vt 0.391086 2.469221 0.000000
vt -0.000000 2.500000 0.000000
vt -0.391086 2.469221 0.000000
vt -0.772542 2.377641 0.000000
vt -1.134976 2.227516 0.000000
vt -1.469463 2.022542 0.000000
vt -1.767767 1.767767 0.000000
vt -2.022542 1.469463 0.000000
vt -2.227516 1.134976 0.000000
vt -2.377641 0.772542 0.000000
vt -2.469221 0.391086 0.000000
vt -2.500000 0.000000 0.000000
vt -2.469221 -0.391086 0.000000
vt -2.377641 -0.772542 0.000000
vt -2.227516 -1.134976 0.000000
vt -2.022542 -1.469463 0.000000
vt -1.767767 -1.767767 0.000000
vt -1.469463 -2.022542 0.000000
vt -1.134976 -2.227516 0.000000
vt -0.772542 -2.377641 0.000000
vt -0.391086 -2.469221 0.000000
vn 0.000000 -100.000000 0.000000
vn 0.000000 -100.000000 0.000000
vn 0.000000 -100.000000 0.000000
vn 0.000000 -100.000000 0.000000
vn 0.000000 -100.000000 0.000000
vn 0.000000 -100.000000 0.000000
vn 0.000000 -100.000000 0.000000
vn 0.000000 -100.000000 0.000000
vn 0.000000 -100.000000 0.000000
vn 0.000000 -100.000000 0.000000
vn 0.000000 -100.000000 0.000000
vn 0.000000 -100.000000 0.000000
vn 0.000000 -100.000000 0.000000
vn 0.000000 -100.000000 0.000000
vn 0.000000 -100.000000 0.000000
vn 0.000000 -100.000000 0.000000
vn 0.000000 -100.000000 0.000000
vn 0.000000 -100.000000 0.000000
vn 0.000000 -100.000000 0.000000
vn 0.000000 -100.000000 0.000000
vn 0.000000 -100.000000 0.000000
vn 0.000000 -100.000000 0.000000
vn 0.000000 -100.000000 0.000000
vn 0.000000 -100.000000 0.000000
vn 0.000000 -100.000000 0.000000
vn 0.000000 -100.000000 0.000000
vn 0.000000 -100.000000 0.000000
vn 0.000000 -100.000000 0.000000
vn 0.000000 -100.000000 0.000000
vn 0.000000 -100.000000 0.000000
vn 0.000000 -100.000000 0.000000
vn 0.000000 -100.000000 0.000000
vn 0.000000 -100.000000 0.000000
vn 0.000000 -100.000000 0.000000
vn 0.000000 -100.000000 0.000000
vn 0.000000 -100.000000 0.000000
vn 0.000000 -100.000000 0.000000
vn 0.000000 -100.000000 0.000000
vn 0.000000 -100.000000 0.000000
vn 0.000000 -100.000000 0.000000
vn 0.000000 -100.000000 0.000000
vn 0.000000 -100.000000 0.000000
vn 0.000000 -100.000000 0.000000
vn 0.000000 -100.000000 0.000000
vn 0.000000 -100.000000 0.000000
vn 0.000000 -100.000000 0.000000
vn 0.000000 62.532520 -78.036427
vn 0.000000 62.532520 -78.036427
vn 0.000000 62.532520 -78.036427
vn 0.000000 62.532520 -78.036427
vn 0.000000 62.532520 -78.036427
vn 0.000000 62.532520 78.036427
vn 0.000000 62.532520 78.036427
vn 0.000000 62.532520 78.036427
vn 0.000000 62.532520 78.036427
vn 0.000000 62.532520 78.036427
vn 0.000000 62.532520 -78.036427
vn 0.000000 90.147799 -43.282488
vn 0.000000 100.000000 0.000000
vn 0.000000 90.147799 43.282488
vn 0.000000 62.532520 78.036427
vn 0.000000 62.532520 78.036427
vn 0.000000 90.147799 43.282488
vn 0.000000 100.000000 0.000000
vn 0.000000 90.147799 -43.282488
vn 0.000000 62.532520 -78.036427
vn -100.000000 0.000000 0.000000
vn -100.000000 0.000000 0.000000
vn -100.000000 0.000000 0.000000
vn -100.000000 0.000000 0.000000
vn -100.000000 0.000000 0.000000
vn -100.000000 0.000000 0.000000
vn -100.000000 0.000000 0.000000
vn 100.000000 0.000000 0.000000
vn 100.000000 0.000000 0.000000
vn 100.000000 0.000000 0.000000
vn 100.000000 0.000000 0.000000
vn 100.000000 0.000000 0.000000
vn 100.000000 0.000000 0.000000
vn 100.000000 0.000000 0.000000
vn 0.000000 0.000000 100.000000
vn -15.643446 0.000000 98.768836
vn -30.901700 0.000000 95.105654
vn -45.399049 0.000000 89.100653
vn -58.778524 0.000000 80.901700
vn -70.710677 0.000000 70.710677
vn -80.901700 0.000000 58.778524
vn -89.100653 0.000000 45.399049
vn -95.105654 0.000000 30.901700
vn -98.768836 0.000000 15.643446
vn -100.000000 0.000000 0.000000
vn -98.768836 0.000000 -15.643446
vn -95.105654 0.000000 -30.901700
vn -89.100653 0.000000 -45.399049
vn -80.901700 0.000000 -58.778524
vn -70.710677 0.000000 -70.710677
vn -58.778524 0.000000 -80.901700
vn -45.399049 0.000000 -89.100653
vn -30.901700 0.000000 -95.105654
vn -15.643446 0.000000 -98.768836
vn 0.000000 0.000000 -100.000000
vn 15.643446 0.000000 -98.768836
vn 30.901700 0.000000 -95.105654
vn 45.399049 0.000000 -89.100653
vn 58.778524 0.000000 -80.901700
vn 70.710677 0.000000 -70.710677
vn 80.901700 0.000000 -58.778524
vn 89.100653 0.000000 -45.399049
vn 95.105654 0.000000 -30.901700
vn 98.768836 0.000000 -15.643446
vn 100.000000 0.000000 0.000000
vn 98.768836 0.000000 15.643446
vn 95.105654 0.000000 30.901700
vn 89.100653 0.000000 45.399049
vn 80.901700 0.000000 58.778524
vn 70.710677 0.000000 70.710677
vn 58.778524 0.000000 80.901700
vn 45.399049 0.000000 89.100653
vn 30.901700 0.000000 95.105654
vn 15.643446 0.000000 98.768836
vn -100.000000 0.000000 0.000000
vn -98.768836 0.000000 15.643446
vn -95.105654 0.000000 30.901700
vn -89.100653 0.000000 45.399049
vn -80.901700 0.000000 58.778524
vn -70.710677 0.000000 70.710677
vn -58.778524 0.000000 80.901700
vn -45.399049 0.000000 89.100653
vn -30.901700 0.000000 95.105654
vn -15.643446 0.000000 98.768836
vn 0.000000 0.000000 100.000000
vn 15.643446 0.000000 98.768836
vn 30.901700 0.000000 95.105654
vn 45.399049 0.000000 89.100653
vn 58.778524 0.000000 80.901700
vn 70.710677 0.000000 70.710677
vn 80.901700 0.000000 58.778524
vn 89.100653 0.000000 45.399049
vn 95.105654 0.000000 30.901700
vn 98.768836 0.000000 15.643446
vn 100.000000 0.000000 0.000000
vn 98.768836 0.000000 -15.643446
vn 95.105654 0.000000 -30.901700
vn 89.100653 0.000000 -45.399049
vn 80.901700 0.000000 -58.778524
vn 70.710677 0.000000 -70.710677
vn 58.778524 0.000000 -80.901700
vn 45.399049 0.000000 -89.100653
vn 30.901700 0.000000 -95.105654
vn 15.643446 0.000000 -98.768836
vn 0.000000 0.000000 -100.000000
vn -15.643446 0.000000 -98.768836
vn -30.901700 0.000000 -95.105654
vn -45.399049 0.000000 -89.100653
vn -58.778524 0.000000 -80.901700
vn -70.710677 0.000000 -70.710677
vn -80.901700 0.000000 -58.778524
vn -89.100653 0.000000 -45.399049
vn -95.105654 0.000000 -30.901700
vn -98.768836 0.000000 -15.643446
vn 100.000000 0.000000 0.000000
vn 100.000000 0.000000 0.000000
vn 0.000000 -100.000000 0.000000
vn 0.000000 -100.000000 0.000000
vn 0.000000 -100.000000 0.000000
vn 0.000000 -100.000000 0.000000
vn 0.000000 -100.000000 0.000000
vn 0.000000 -100.000000 0.000000
vn 0.000000 -100.000000 0.000000
vn 0.000000 -100.000000 0.000000
vn 0.000000 -100.000000 0.000000
vn 0.000000 -100.000000 0.000000
vn 0.000000 -100.000000 0.000000
vn 0.000000 -100.000000 0.000000
vn 0.000000 -100.000000 0.000000
vn 0.000000 -100.000000 0.000000
vn 0.000000 -100.000000 0.000000
vn 0.000000 -100.000000 0.000000
vn 0.000000 -100.000000 0.000000
vn 0.000000 -100.000000 0.000000
vn 0.000000 -100.000000 0.000000
vn 0.000000 -100.000000 0.000000
vn 0.000000 -100.000000 0.000000
vn 0.000000 -100.000000 0.000000
vn 0.000000 -100.000000 0.000000
vn 0.000000 -100.000000 0.000000
vn 0.000000 -100.000000 0.000000
vn 0.000000 -100.000000 0.000000
vn 0.000000 -100.000000 0.000000
vn 0.000000 -100.000000 0.000000
vn 0.000000 -100.000000 0.000000
vn 0.000000 -100.000000 0.000000
vn 0.000000 -100.000000 0.000000
vn 0.000000 -100.000000 0.000000
vn 0.000000 -100.000000 0.000000
vn 0.000000 -100.000000 0.000000
vn 0.000000 -100.000000 0.000000
vn 0.000000 -100.000000 0.000000
vn 0.000000 -100.000000 0.000000
vn 0.000000 -100.000000 0.000000
vn 0.000000 -100.000000 0.000000
vn 0.000000 -100.000000 0.000000
usemtl 191,191,191
f 49/1/1 53/2/2 89/23/23
f 89/23/23 53/2/2 57/3/3
f 89/23/23 57/3/3 61/4/4
f 61/4/4 65/5/5 89/23/23
f 89/23/23 65/5/5 69/6/6
f 89/23/23 69/6/6 73/7/7
f 73/7/7 77/8/8 89/23/23
f 89/23/23 77/8/8 81/9/9
f 89/23/23 81/9/9 85/10/10
f 85/10/10 87/11/11 89/23/23
f 89/23/23 87/11/11 88/22/22
f 88/22/22 87/11/11 84/12/12
f 88/22/22 84/12/12 80/13/13
f 80/13/13 76/14/14 88/22/22
f 88/22/22 76/14/14 72/15/15
f 88/22/22 72/15/15 68/16/16
f 68/16/16 64/17/17 88/22/22
f 88/22/22 64/17/17 60/18/18
f 88/22/22 60/18/18 56/19/19
f 56/19/19 52/20/20 88/22/22
f 88/22/22 52/20/20 48/21/21
f 48/24/24 44/25/25 1/46/46
f 1/46/46 44/25/25 40/26/26
f 1/46/46 40/26/26 36/27/27
f 36/27/27 32/28/28 1/46/46
f 1/46/46 32/28/28 28/29/29
f 1/46/46 28/29/29 24/30/30
f 24/30/30 20/31/31 1/46/46
f 1/46/46 20/31/31 16/32/32
f 1/46/46 16/32/32 12/33/33
f 12/33/33 9/34/34 1/46/46
f 1/46/46 9/34/34 2/45/45
f 2/45/45 9/34/34 13/35/35
f 2/45/45 13/35/35 17/36/36
f 17/36/36 21/37/37 2/45/45
f 2/45/45 21/37/37 25/38/38
f 2/45/45 25/38/38 29/39/39
f 29/39/39 33/40/40 2/45/45
f 2/45/45 33/40/40 37/41/41
f 2/45/45 37/41/41 41/42/42
f 41/42/42 45/43/43 2/45/45
f 2/45/45 45/43/43 49/44/44
f 1/47/47 3/48/48 48/51/51
f 48/51/51 3/48/48 90/49/49
f 48/51/51 90/49/49 88/50/50
f 2/53/53 49/54/54 4/52/52
f 4/52/52 49/54/54 91/56/56
f 91/56/56 49/54/54 89/55/55
f 90/66/66 3/57/57 92/65/65
f 92/65/65 3/57/57 5/58/58
f 92/65/65 5/58/58 94/64/64
f 94/64/64 5/58/58 7/59/59
f 94/64/64 7/59/59 93/63/63
f 93/63/63 7/59/59 6/60/60
f 93/63/63 6/60/60 91/62/62
f 91/62/62 6/60/60 4/61/61
f 6/68/68 5/70/70 4/67/67
f 4/67/67 5/70/70 3/71/71
f 4/67/67 3/71/71 2/73/73
f 2/73/73 3/71/71 1/72/72
f 6/68/68 7/69/69 5/70/70
f 92/75/75 93/77/77 90/74/74
f 90/74/74 93/77/77 91/78/78
f 90/74/74 91/78/78 88/80/80
f 88/80/80 91/78/78 89/79/79
f 92/75/75 94/76/76 93/77/77
f 45/82/82 43/130/130 49/81/81
f 49/81/81 43/130/130 47/131/131
f 49/81/81 47/131/131 53/120/120
f 53/120/120 47/131/131 51/132/132
f 53/120/120 51/132/132 57/119/119
f 57/119/119 51/132/132 55/133/133
f 57/119/119 55/133/133 61/118/118
f 61/118/118 55/133/133 59/134/134
f 61/118/118 59/134/134 65/117/117
f 65/117/117 59/134/134 63/135/135
f 65/117/117 63/135/135 69/116/116
f 69/116/116 63/135/135 67/136/136
f 69/116/116 67/136/136 73/115/115
f 73/115/115 67/136/136 71/137/137
f 73/115/115 71/137/137 77/114/114
f 77/114/114 71/137/137 75/138/138
f 77/114/114 75/138/138 81/113/113
f 81/113/113 75/138/138 79/139/139
f 81/113/113 79/139/139 85/112/112
f 85/112/112 79/139/139 83/140/140
f 85/112/112 83/140/140 87/111/111
f 87/111/111 83/140/140 86/161/161
f 87/162/162 86/141/141 84/110/110
f 84/110/110 86/141/141 82/142/142
f 84/110/110 82/142/142 80/109/109
f 80/109/109 82/142/142 78/143/143
f 80/109/109 78/143/143 76/108/108
f 76/108/108 78/143/143 74/144/144
f 76/108/108 74/144/144 72/107/107
f 72/107/107 74/144/144 70/145/145
f 72/107/107 70/145/145 68/106/106
f 68/106/106 70/145/145 66/146/146
f 68/106/106 66/146/146 64/105/105
f 64/105/105 66/146/146 62/147/147
f 64/105/105 62/147/147 60/104/104
f 60/104/104 62/147/147 58/148/148
f 60/104/104 58/148/148 56/103/103
f 56/103/103 58/148/148 54/149/149
f 56/103/103 54/149/149 52/102/102
f 52/102/102 54/149/149 50/150/150
f 52/102/102 50/150/150 48/101/101
f 48/101/101 50/150/150 46/151/151
f 48/101/101 46/151/151 44/100/100
f 44/100/100 46/151/151 42/152/152
f 44/100/100 42/152/152 40/99/99
f 40/99/99 42/152/152 38/153/153
f 40/99/99 38/153/153 36/98/98
f 36/98/98 38/153/153 34/154/154
f 36/98/98 34/154/154 32/97/97
f 32/97/97 34/154/154 30/155/155
f 32/97/97 30/155/155 28/96/96
f 28/96/96 30/155/155 26/156/156
f 28/96/96 26/156/156 24/95/95
f 24/95/95 26/156/156 22/157/157
f 24/95/95 22/157/157 20/94/94
f 20/94/94 22/157/157 18/158/158
f 20/94/94 18/158/158 16/93/93
f 16/93/93 18/158/158 14/159/159
f 16/93/93 14/159/159 12/92/92
f 12/92/92 14/159/159 10/160/160
f 12/92/92 10/160/160 9/91/91
f 9/91/91 10/160/160 8/121/121
f 9/91/91 8/121/121 13/90/90
f 13/90/90 8/121/121 11/122/122
f 13/90/90 11/122/122 17/89/89
f 17/89/89 11/122/122 15/123/123
f 17/89/89 15/123/123 21/88/88
f 21/88/88 15/123/123 19/124/124
f 21/88/88 19/124/124 25/87/87
f 25/87/87 19/124/124 23/125/125
f 25/87/87 23/125/125 29/86/86
f 29/86/86 23/125/125 27/126/126
f 29/86/86 27/126/126 33/85/85
f 33/85/85 27/126/126 31/127/127
f 33/85/85 31/127/127 37/84/84
f 37/84/84 31/127/127 35/128/128
f 37/84/84 35/128/128 41/83/83
f 41/83/83 35/128/128 39/129/129
f 41/83/83 39/129/129 45/82/82
f 45/82/82 39/129/129 43/130/130
f 8/163/163 10/164/164 11/202/202
f 11/202/202 10/164/164 15/201/201
f 15/201/201 10/164/164 14/165/165
f 15/201/201 14/165/165 19/200/200
f 19/200/200 14/165/165 18/166/166
f 19/200/200 18/166/166 23/199/199
f 23/199/199 18/166/166 22/167/167
f 23/199/199 22/167/167 27/198/198
f 27/198/198 22/167/167 26/168/168
f 27/198/198 26/168/168 31/197/197
f 31/197/197 26/168/168 30/169/169
f 31/197/197 30/169/169 35/196/196
f 35/196/196 30/169/169 34/170/170
f 35/196/196 34/170/170 39/195/195
f 39/195/195 34/170/170 38/171/171
f 39/195/195 38/171/171 43/194/194
f 43/194/194 38/171/171 42/172/172
f 43/194/194 42/172/172 47/193/193
f 47/193/193 42/172/172 46/173/173
f 47/193/193 46/173/173 51/192/192
f 51/192/192 46/173/173 50/174/174
f 51/192/192 50/174/174 55/191/191
f 55/191/191 50/174/174 54/175/175
f 55/191/191 54/175/175 59/190/190
f 59/190/190 54/175/175 58/176/176
f 59/190/190 58/176/176 63/189/189
f 63/189/189 58/176/176 62/177/177
f 63/189/189 62/177/177 67/188/188
f 67/188/188 62/177/177 66/178/178
f 67/188/188 66/178/178 71/187/187
f 71/187/187 66/178/178 70/179/179
f 71/187/187 70/179/179 75/186/186
f 75/186/186 70/179/179 74/180/180
f 75/186/186 74/180/180 79/185/185
f 79/185/185 74/180/180 78/181/181
f 79/185/185 78/181/181 83/184/184
f 83/184/184 78/181/181 82/182/182
f 83/184/184 82/182/182 86/183/183
# 94 vertices
# 202 texture params
# 202 normals
# 184 facets

# 1 groups
