# WaveFront *.obj file (generated by Autodesk ATF)

mtllib rotator_wedge.mtl

g Solid1

v -0.050000 0.080000 -0.025000
v -0.050000 0.080000 0.025000
v -0.050000 0.110000 -0.005000
v -0.050000 0.110000 0.005000
v -0.025000 0.000000 0.000000
v -0.025000 0.080000 0.000000
v -0.024692 0.000000 -0.003911
v -0.024692 0.000000 0.003911
v -0.024692 0.080000 -0.003911
v -0.024692 0.080000 0.003911
v -0.023776 0.000000 -0.007725
v -0.023776 0.000000 0.007725
v -0.023776 0.080000 -0.007725
v -0.023776 0.080000 0.007725
v -0.022275 0.000000 -0.011350
v -0.022275 0.000000 0.011350
v -0.022275 0.080000 -0.011350
v -0.022275 0.080000 0.011350
v -0.020225 0.000000 -0.014695
v -0.020225 0.000000 0.014695
v -0.020225 0.080000 -0.014695
v -0.020225 0.080000 0.014695
v -0.017678 0.000000 -0.017678
v -0.017678 0.000000 0.017678
v -0.017678 0.080000 -0.017678
v -0.017678 0.080000 0.017678
v -0.014695 0.000000 -0.020225
v -0.014695 0.000000 0.020225
v -0.014695 0.080000 -0.020225
v -0.014695 0.080000 0.020225
v -0.011350 0.000000 -0.022275
v -0.011350 0.000000 0.022275
v -0.011350 0.080000 -0.022275
v -0.011350 0.080000 0.022275
v -0.007725 0.000000 -0.023776
v -0.007725 0.000000 0.023776
v -0.007725 0.080000 -0.023776
v -0.007725 0.080000 0.023776
v -0.003911 0.000000 -0.024692
v -0.003911 0.000000 0.024692
v -0.003911 0.080000 -0.024692
v -0.003911 0.080000 0.024692
v 0.000000 0.000000 -0.025000
v 0.000000 0.000000 0.025000
v 0.000000 0.080000 -0.025000
v 0.000000 0.080000 0.025000
v 0.003911 0.000000 -0.024692
v 0.003911 0.000000 0.024692
v 0.003911 0.080000 -0.024692
v 0.003911 0.080000 0.024692
v 0.007725 0.000000 -0.023776
v 0.007725 0.000000 0.023776
v 0.007725 0.080000 -0.023776
v 0.007725 0.080000 0.023776
v 0.011350 0.000000 -0.022275
v 0.011350 0.000000 0.022275
v 0.011350 0.080000 -0.022275
v 0.011350 0.080000 0.022275
v 0.014695 0.000000 -0.020225
v 0.014695 0.000000 0.020225
v 0.014695 0.080000 -0.020225
v 0.014695 0.080000 0.020225
v 0.017678 0.000000 -0.017678
v 0.017678 0.000000 0.017678
v 0.017678 0.080000 -0.017678
v 0.017678 0.080000 0.017678
v 0.020225 0.000000 -0.014695
v 0.020225 0.000000 0.014695
v 0.020225 0.080000 -0.014695
v 0.020225 0.080000 0.014695
v 0.022275 0.000000 -0.011350
v 0.022275 0.000000 0.011350
v 0.022275 0.080000 -0.011350
v 0.022275 0.080000 0.011350
v 0.023776 0.000000 -0.007725
v 0.023776 0.000000 0.007725
v 0.023776 0.080000 -0.007725
v 0.023776 0.080000 0.007725
v 0.024692 0.000000 -0.003911
v 0.024692 0.000000 0.003911
v 0.024692 0.080000 -0.003911
v 0.024692 0.080000 0.003911
v 0.025000 0.000000 0.000000
v 0.025000 0.080000 0.000000
v 0.050000 0.080000 -0.025000
v 0.050000 0.080000 0.025000
v 0.050000 0.110000 -0.005000
v 0.050000 0.110000 0.005000
vt -2.500000 0.000000 0.000000
vt -2.469221 0.391086 0.000000
vt -2.377641 0.772542 0.000000
vt -2.227516 1.134976 0.000000
vt -2.022542 1.469463 0.000000
vt -1.767767 1.767767 0.000000
vt -1.469463 2.022542 0.000000
vt -1.134976 2.227516 0.000000
vt -0.772542 2.377641 0.000000
vt -0.391086 2.469221 0.000000
vt -0.000000 2.500000 0.000000
vt 0.391086 2.469221 0.000000
vt 0.772542 2.377641 0.000000
vt 1.134976 2.227516 0.000000
vt 1.469463 2.022542 0.000000
vt 1.767767 1.767767 0.000000
vt 2.022542 1.469463 0.000000
vt 2.227516 1.134976 0.000000
vt 2.377641 0.772542 0.000000
vt 2.469221 0.391086 0.000000
vt 2.500000 0.000000 0.000000
vt 2.500000 5.000000 0.000000
vt -2.500000 5.000000 0.000000
vt 2.500000 0.000000 0.000000
vt 2.469221 -0.391086 0.000000
vt 2.377641 -0.772542 0.000000
vt 2.227516 -1.134976 0.000000
vt 2.022542 -1.469463 0.000000
vt 1.767767 -1.767767 0.000000
vt 1.469463 -2.022542 0.000000
vt 1.134976 -2.227516 0.000000
vt 0.772542 -2.377641 0.000000
vt 0.391086 -2.469221 0.000000
vt -0.000000 -2.500000 0.000000
vt -0.391086 -2.469221 0.000000
vt -0.772542 -2.377641 0.000000
vt -1.134976 -2.227516 0.000000
vt -1.469463 -2.022542 0.000000
vt -1.767767 -1.767767 0.000000
vt -2.022542 -1.469463 0.000000
vt -2.227516 -1.134976 0.000000
vt -2.377641 -0.772542 0.000000
vt -2.469221 -0.391086 0.000000
vt -2.500000 0.000000 0.000000
vt -2.500000 -5.000000 0.000000
vt 2.500000 -5.000000 0.000000
vt 0.500000 -5.000000 0.000000
vt 0.500000 5.000000 0.000000
vt -0.500000 5.000000 0.000000
vt -0.500000 -5.000000 0.000000
vt 10.000000 0.000000 0.000000
vt -0.000000 0.000000 0.000000
vt -0.000000 -3.605551 0.000000
vt 5.000000 -3.605551 0.000000
vt 10.000000 -3.605551 0.000000
vt 1.000000 0.000000 0.000000
vt -0.000000 0.000000 0.000000
vt -2.000000 -3.000000 0.000000
vt 3.000000 -3.000000 0.000000
vt 10.000000 0.000000 0.000000
vt -0.000000 0.000000 0.000000
vt -0.000000 -3.605551 0.000000
vt 5.000000 -3.605551 0.000000
vt 10.000000 -3.605551 0.000000
vt 1.000000 0.000000 0.000000
vt -0.000000 0.000000 0.000000
vt -2.000000 -3.000000 0.000000
vt 3.000000 -3.000000 0.000000
vt -8.000000 3.926991 0.000000
vt -8.000000 3.534292 0.000000
vt -8.000000 3.141593 0.000000
vt -8.000000 2.748893 0.000000
vt -8.000000 2.356194 0.000000
vt -8.000000 1.963495 0.000000
vt -8.000000 1.570796 0.000000
vt -8.000000 1.178097 0.000000
vt -8.000000 0.785398 0.000000
vt -8.000000 0.392699 0.000000
vt -8.000000 0.000000 0.000000
vt -8.000000 -0.392699 0.000000
vt -8.000000 -0.785398 0.000000
vt -8.000000 -1.178097 0.000000
vt -8.000000 -1.570796 0.000000
vt -8.000000 -1.963495 0.000000
vt -8.000000 -2.356194 0.000000
vt -8.000000 -2.748893 0.000000
vt -8.000000 -3.141593 0.000000
vt -8.000000 -3.534292 0.000000
vt -8.000000 -3.926991 0.000000
vt -8.000000 -4.319690 0.000000
vt -8.000000 -4.712389 0.000000
vt -8.000000 -5.105088 0.000000
vt -8.000000 -5.497787 0.000000
vt -8.000000 -5.890486 0.000000
vt -8.000000 -6.283185 0.000000
vt -8.000000 -6.675884 0.000000
vt -8.000000 -7.068583 0.000000
vt -8.000000 -7.461283 0.000000
vt -8.000000 7.853982 0.000000
vt -8.000000 7.461283 0.000000
vt -8.000000 7.068583 0.000000
vt -8.000000 6.675884 0.000000
vt -8.000000 6.283185 0.000000
vt -8.000000 5.890486 0.000000
vt -8.000000 5.497787 0.000000
vt -8.000000 5.105088 0.000000
vt -8.000000 4.712389 0.000000
vt -8.000000 4.319690 0.000000
vt -0.000000 0.000000 0.000000
vt -0.000000 0.392699 0.000000
vt -0.000000 0.785398 0.000000
vt -0.000000 1.178097 0.000000
vt -0.000000 1.570796 0.000000
vt -0.000000 1.963495 0.000000
vt -0.000000 2.356194 0.000000
vt -0.000000 2.748893 0.000000
vt -0.000000 3.141593 0.000000
vt -0.000000 3.534292 0.000000
vt -0.000000 3.926991 0.000000
vt -0.000000 4.319690 0.000000
vt -0.000000 4.712389 0.000000
vt -0.000000 5.105088 0.000000
vt -0.000000 5.497787 0.000000
vt -0.000000 5.890486 0.000000
vt -0.000000 6.283185 0.000000
vt -0.000000 6.675884 0.000000
vt -0.000000 7.068583 0.000000
vt -0.000000 7.461283 0.000000
vt -0.000000 -7.853982 0.000000
vt -0.000000 -7.461283 0.000000
vt -0.000000 -7.068583 0.000000
vt -0.000000 -6.675884 0.000000
vt -0.000000 -6.283185 0.000000
vt -0.000000 -5.890486 0.000000
vt -0.000000 -5.497787 0.000000
vt -0.000000 -5.105088 0.000000
vt -0.000000 -4.712389 0.000000
vt -0.000000 -4.319690 0.000000
vt -0.000000 -3.926991 0.000000
vt -0.000000 -3.534292 0.000000
vt -0.000000 -3.141593 0.000000
vt -0.000000 -2.748893 0.000000
vt -0.000000 -2.356194 0.000000
vt -0.000000 -1.963495 0.000000
vt -0.000000 -1.570796 0.000000
vt -0.000000 -1.178097 0.000000
vt -0.000000 -0.785398 0.000000
vt -0.000000 -0.392699 0.000000
vt -0.000000 7.853982 0.000000
vt -8.000000 -7.853982 0.000000
vt -0.000000 -2.500000 0.000000
vt 0.391086 -2.469221 0.000000
vt 0.772542 -2.377641 0.000000
vt 1.134976 -2.227516 0.000000
vt 1.469463 -2.022542 0.000000
vt 1.767767 -1.767767 0.000000
vt 2.022542 -1.469463 0.000000
vt 2.227516 -1.134976 0.000000
vt 2.377641 -0.772542 0.000000
vt 2.469221 -0.391086 0.000000
vt 2.500000 0.000000 0.000000
vt 2.469221 0.391086 0.000000
vt 2.377641 0.772542 0.000000
vt 2.227516 1.134976 0.000000
vt 2.022542 1.469463 0.000000
vt 1.767767 1.767767 0.000000
vt 1.469463 2.022542 0.000000
vt 1.134976 2.227516 0.000000
vt 0.772542 2.377641 0.000000
vt 0.391086 2.469221 0.000000
vt -0.000000 2.500000 0.000000
vt -0.391086 2.469221 0.000000
vt -0.772542 2.377641 0.000000
vt -1.134976 2.227516 0.000000
vt -1.469463 2.022542 0.000000
vt -1.767767 1.767767 0.000000
vt -2.022542 1.469463 0.000000
vt -2.227516 1.134976 0.000000
vt -2.377641 0.772542 0.000000
vt -2.469221 0.391086 0.000000
vt -2.500000 0.000000 0.000000
vt -2.469221 -0.391086 0.000000
vt -2.377641 -0.772542 0.000000
vt -2.227516 -1.134976 0.000000
vt -2.022542 -1.469463 0.000000
vt -1.767767 -1.767767 0.000000
vt -1.469463 -2.022542 0.000000
vt -1.134976 -2.227516 0.000000
vt -0.772542 -2.377641 0.000000
vt -0.391086 -2.469221 0.000000
vn 0.000000 -100.000000 0.000000
vn 0.000000 -100.000000 0.000000
vn 0.000000 -100.000000 0.000000
vn 0.000000 -100.000000 0.000000
vn 0.000000 -100.000000 0.000000
vn 0.000000 -100.000000 0.000000
vn 0.000000 -100.000000 0.000000
vn 0.000000 -100.000000 0.000000
vn 0.000000 -100.000000 0.000000
vn 0.000000 -100.000000 0.000000
vn 0.000000 -100.000000 0.000000
vn 0.000000 -100.000000 0.000000
vn 0.000000 -100.000000 0.000000
vn 0.000000 -100.000000 0.000000
vn 0.000000 -100.000000 0.000000
vn 0.000000 -100.000000 0.000000
vn 0.000000 -100.000000 0.000000
vn 0.000000 -100.000000 0.000000
vn 0.000000 -100.000000 0.000000
vn 0.000000 -100.000000 0.000000
vn 0.000000 -100.000000 0.000000
vn 0.000000 -100.000000 0.000000
vn 0.000000 -100.000000 0.000000
vn 0.000000 -100.000000 0.000000
vn 0.000000 -100.000000 0.000000
vn 0.000000 -100.000000 0.000000
vn 0.000000 -100.000000 0.000000
vn 0.000000 -100.000000 0.000000
vn 0.000000 -100.000000 0.000000
vn 0.000000 -100.000000 0.000000
vn 0.000000 -100.000000 0.000000
vn 0.000000 -100.000000 0.000000
vn 0.000000 -100.000000 0.000000
vn 0.000000 -100.000000 0.000000
vn 0.000000 -100.000000 0.000000
vn 0.000000 -100.000000 0.000000
vn 0.000000 -100.000000 0.000000
vn 0.000000 -100.000000 0.000000
vn 0.000000 -100.000000 0.000000
vn 0.000000 -100.000000 0.000000
vn 0.000000 -100.000000 0.000000
vn 0.000000 -100.000000 0.000000
vn 0.000000 -100.000000 0.000000
vn 0.000000 -100.000000 0.000000
vn 0.000000 -100.000000 0.000000
vn 0.000000 -100.000000 0.000000
vn 0.000000 100.000000 0.000000
vn 0.000000 100.000000 0.000000
vn 0.000000 100.000000 0.000000
vn 0.000000 100.000000 0.000000
vn 0.000000 55.470020 83.205032
vn 0.000000 55.470020 83.205032
vn 0.000000 55.470020 83.205032
vn 0.000000 55.470020 83.205032
vn 0.000000 55.470020 83.205032
vn 100.000000 0.000000 0.000000
vn 100.000000 0.000000 0.000000
vn 100.000000 0.000000 0.000000
vn 100.000000 0.000000 0.000000
vn 0.000000 55.470020 -83.205032
vn 0.000000 55.470020 -83.205032
vn 0.000000 55.470020 -83.205032
vn 0.000000 55.470020 -83.205032
vn 0.000000 55.470020 -83.205032
vn -100.000000 0.000000 0.000000
vn -100.000000 0.000000 0.000000
vn -100.000000 0.000000 0.000000
vn -100.000000 0.000000 0.000000
vn 0.000000 0.000000 100.000000
vn -15.643446 0.000000 98.768836
vn -30.901700 0.000000 95.105654
vn -45.399049 0.000000 89.100653
vn -58.778524 0.000000 80.901700
vn -70.710677 0.000000 70.710677
vn -80.901700 0.000000 58.778524
vn -89.100653 0.000000 45.399049
vn -95.105654 0.000000 30.901700
vn -98.768836 0.000000 15.643446
vn -100.000000 0.000000 0.000000
vn -98.768836 0.000000 -15.643446
vn -95.105654 0.000000 -30.901700
vn -89.100653 0.000000 -45.399049
vn -80.901700 0.000000 -58.778524
vn -70.710677 0.000000 -70.710677
vn -58.778524 0.000000 -80.901700
vn -45.399049 0.000000 -89.100653
vn -30.901700 0.000000 -95.105654
vn -15.643446 0.000000 -98.768836
vn 0.000000 0.000000 -100.000000
vn 15.643446 0.000000 -98.768836
vn 30.901700 0.000000 -95.105654
vn 45.399049 0.000000 -89.100653
vn 58.778524 0.000000 -80.901700
vn 70.710677 0.000000 -70.710677
vn 80.901700 0.000000 -58.778524
vn 89.100653 0.000000 -45.399049
vn 95.105654 0.000000 -30.901700
vn 98.768836 0.000000 -15.643446
vn 100.000000 0.000000 0.000000
vn 98.768836 0.000000 15.643446
vn 95.105654 0.000000 30.901700
vn 89.100653 0.000000 45.399049
vn 80.901700 0.000000 58.778524
vn 70.710677 0.000000 70.710677
vn 58.778524 0.000000 80.901700
vn 45.399049 0.000000 89.100653
vn 30.901700 0.000000 95.105654
vn 15.643446 0.000000 98.768836
vn -100.000000 0.000000 0.000000
vn -98.768836 0.000000 15.643446
vn -95.105654 0.000000 30.901700
vn -89.100653 0.000000 45.399049
vn -80.901700 0.000000 58.778524
vn -70.710677 0.000000 70.710677
vn -58.778524 0.000000 80.901700
vn -45.399049 0.000000 89.100653
vn -30.901700 0.000000 95.105654
vn -15.643446 0.000000 98.768836
vn 0.000000 0.000000 100.000000
vn 15.643446 0.000000 98.768836
vn 30.901700 0.000000 95.105654
vn 45.399049 0.000000 89.100653
vn 58.778524 0.000000 80.901700
vn 70.710677 0.000000 70.710677
vn 80.901700 0.000000 58.778524
vn 89.100653 0.000000 45.399049
vn 95.105654 0.000000 30.901700
vn 98.768836 0.000000 15.643446
vn 100.000000 0.000000 0.000000
vn 98.768836 0.000000 -15.643446
vn 95.105654 0.000000 -30.901700
vn 89.100653 0.000000 -45.399049
vn 80.901700 0.000000 -58.778524
vn 70.710677 0.000000 -70.710677
vn 58.778524 0.000000 -80.901700
vn 45.399049 0.000000 -89.100653
vn 30.901700 0.000000 -95.105654
vn 15.643446 0.000000 -98.768836
vn 0.000000 0.000000 -100.000000
vn -15.643446 0.000000 -98.768836
vn -30.901700 0.000000 -95.105654
vn -45.399049 0.000000 -89.100653
vn -58.778524 0.000000 -80.901700
vn -70.710677 0.000000 -70.710677
vn -80.901700 0.000000 -58.778524
vn -89.100653 0.000000 -45.399049
vn -95.105654 0.000000 -30.901700
vn -98.768836 0.000000 -15.643446
vn 100.000000 0.000000 0.000000
vn 100.000000 0.000000 0.000000
vn 0.000000 -100.000000 0.000000
vn 0.000000 -100.000000 0.000000
vn 0.000000 -100.000000 0.000000
vn 0.000000 -100.000000 0.000000
vn 0.000000 -100.000000 0.000000
vn 0.000000 -100.000000 0.000000
vn 0.000000 -100.000000 0.000000
vn 0.000000 -100.000000 0.000000
vn 0.000000 -100.000000 0.000000
vn 0.000000 -100.000000 0.000000
vn 0.000000 -100.000000 0.000000
vn 0.000000 -100.000000 0.000000
vn 0.000000 -100.000000 0.000000
vn 0.000000 -100.000000 0.000000
vn 0.000000 -100.000000 0.000000
vn 0.000000 -100.000000 0.000000
vn 0.000000 -100.000000 0.000000
vn 0.000000 -100.000000 0.000000
vn 0.000000 -100.000000 0.000000
vn 0.000000 -100.000000 0.000000
vn 0.000000 -100.000000 0.000000
vn 0.000000 -100.000000 0.000000
vn 0.000000 -100.000000 0.000000
vn 0.000000 -100.000000 0.000000
vn 0.000000 -100.000000 0.000000
vn 0.000000 -100.000000 0.000000
vn 0.000000 -100.000000 0.000000
vn 0.000000 -100.000000 0.000000
vn 0.000000 -100.000000 0.000000
vn 0.000000 -100.000000 0.000000
vn 0.000000 -100.000000 0.000000
vn 0.000000 -100.000000 0.000000
vn 0.000000 -100.000000 0.000000
vn 0.000000 -100.000000 0.000000
vn 0.000000 -100.000000 0.000000
vn 0.000000 -100.000000 0.000000
vn 0.000000 -100.000000 0.000000
vn 0.000000 -100.000000 0.000000
vn 0.000000 -100.000000 0.000000
vn 0.000000 -100.000000 0.000000
usemtl 191,191,191
f 46/1/1 50/2/2 86/23/23
f 86/23/23 50/2/2 54/3/3
f 86/23/23 54/3/3 58/4/4
f 58/4/4 62/5/5 86/23/23
f 86/23/23 62/5/5 66/6/6
f 86/23/23 66/6/6 70/7/7
f 70/7/7 74/8/8 86/23/23
f 86/23/23 74/8/8 78/9/9
f 86/23/23 78/9/9 82/10/10
f 82/10/10 84/11/11 86/23/23
f 86/23/23 84/11/11 85/22/22
f 85/22/22 84/11/11 81/12/12
f 85/22/22 81/12/12 77/13/13
f 77/13/13 73/14/14 85/22/22
f 85/22/22 73/14/14 69/15/15
f 85/22/22 69/15/15 65/16/16
f 65/16/16 61/17/17 85/22/22
f 85/22/22 61/17/17 57/18/18
f 85/22/22 57/18/18 53/19/19
f 53/19/19 49/20/20 85/22/22
f 85/22/22 49/20/20 45/21/21
f 45/24/24 41/25/25 1/46/46
f 1/46/46 41/25/25 37/26/26
f 1/46/46 37/26/26 33/27/27
f 33/27/27 29/28/28 1/46/46
f 1/46/46 29/28/28 25/29/29
f 1/46/46 25/29/29 21/30/30
f 21/30/30 17/31/31 1/46/46
f 1/46/46 17/31/31 13/32/32
f 1/46/46 13/32/32 9/33/33
f 9/33/33 6/34/34 1/46/46
f 1/46/46 6/34/34 2/45/45
f 2/45/45 6/34/34 10/35/35
f 2/45/45 10/35/35 14/36/36
f 14/36/36 18/37/37 2/45/45
f 2/45/45 18/37/37 22/38/38
f 2/45/45 22/38/38 26/39/39
f 26/39/39 30/40/40 2/45/45
f 2/45/45 30/40/40 34/41/41
f 2/45/45 34/41/41 38/42/42
f 38/42/42 42/43/43 2/45/45
f 2/45/45 42/43/43 46/44/44
f 88/48/48 87/49/49 4/47/47
f 4/47/47 87/49/49 3/50/50
f 86/55/55 88/51/51 46/54/54
f 46/54/54 88/51/51 4/52/52
f 46/54/54 4/52/52 2/53/53
f 87/56/56 88/57/57 85/59/59
f 85/59/59 88/57/57 86/58/58
f 1/64/64 3/60/60 45/63/63
f 45/63/63 3/60/60 87/61/61
f 45/63/63 87/61/61 85/62/62
f 4/65/65 3/66/66 2/68/68
f 2/68/68 3/66/66 1/67/67
f 42/70/70 40/118/118 46/69/69
f 46/69/69 40/118/118 44/119/119
f 46/69/69 44/119/119 50/108/108
f 50/108/108 44/119/119 48/120/120
f 50/108/108 48/120/120 54/107/107
f 54/107/107 48/120/120 52/121/121
f 54/107/107 52/121/121 58/106/106
f 58/106/106 52/121/121 56/122/122
f 58/106/106 56/122/122 62/105/105
f 62/105/105 56/122/122 60/123/123
f 62/105/105 60/123/123 66/104/104
f 66/104/104 60/123/123 64/124/124
f 66/104/104 64/124/124 70/103/103
f 70/103/103 64/124/124 68/125/125
f 70/103/103 68/125/125 74/102/102
f 74/102/102 68/125/125 72/126/126
f 74/102/102 72/126/126 78/101/101
f 78/101/101 72/126/126 76/127/127
f 78/101/101 76/127/127 82/100/100
f 82/100/100 76/127/127 80/128/128
f 82/100/100 80/128/128 84/99/99
f 84/99/99 80/128/128 83/149/149
f 84/150/150 83/129/129 81/98/98
f 81/98/98 83/129/129 79/130/130
f 81/98/98 79/130/130 77/97/97
f 77/97/97 79/130/130 75/131/131
f 77/97/97 75/131/131 73/96/96
f 73/96/96 75/131/131 71/132/132
f 73/96/96 71/132/132 69/95/95
f 69/95/95 71/132/132 67/133/133
f 69/95/95 67/133/133 65/94/94
f 65/94/94 67/133/133 63/134/134
f 65/94/94 63/134/134 61/93/93
f 61/93/93 63/134/134 59/135/135
f 61/93/93 59/135/135 57/92/92
f 57/92/92 59/135/135 55/136/136
f 57/92/92 55/136/136 53/91/91
f 53/91/91 55/136/136 51/137/137
f 53/91/91 51/137/137 49/90/90
f 49/90/90 51/137/137 47/138/138
f 49/90/90 47/138/138 45/89/89
f 45/89/89 47/138/138 43/139/139
f 45/89/89 43/139/139 41/88/88
f 41/88/88 43/139/139 39/140/140
f 41/88/88 39/140/140 37/87/87
f 37/87/87 39/140/140 35/141/141
f 37/87/87 35/141/141 33/86/86
f 33/86/86 35/141/141 31/142/142
f 33/86/86 31/142/142 29/85/85
f 29/85/85 31/142/142 27/143/143
f 29/85/85 27/143/143 25/84/84
f 25/84/84 27/143/143 23/144/144
f 25/84/84 23/144/144 21/83/83
f 21/83/83 23/144/144 19/145/145
f 21/83/83 19/145/145 17/82/82
f 17/82/82 19/145/145 15/146/146
f 17/82/82 15/146/146 13/81/81
f 13/81/81 15/146/146 11/147/147
f 13/81/81 11/147/147 9/80/80
f 9/80/80 11/147/147 7/148/148
f 9/80/80 7/148/148 6/79/79
f 6/79/79 7/148/148 5/109/109
f 6/79/79 5/109/109 10/78/78
f 10/78/78 5/109/109 8/110/110
f 10/78/78 8/110/110 14/77/77
f 14/77/77 8/110/110 12/111/111
f 14/77/77 12/111/111 18/76/76
f 18/76/76 12/111/111 16/112/112
f 18/76/76 16/112/112 22/75/75
f 22/75/75 16/112/112 20/113/113
f 22/75/75 20/113/113 26/74/74
f 26/74/74 20/113/113 24/114/114
f 26/74/74 24/114/114 30/73/73
f 30/73/73 24/114/114 28/115/115
f 30/73/73 28/115/115 34/72/72
f 34/72/72 28/115/115 32/116/116
f 34/72/72 32/116/116 38/71/71
f 38/71/71 32/116/116 36/117/117
f 38/71/71 36/117/117 42/70/70
f 42/70/70 36/117/117 40/118/118
f 5/151/151 7/152/152 8/190/190
f 8/190/190 7/152/152 12/189/189
f 12/189/189 7/152/152 11/153/153
f 12/189/189 11/153/153 16/188/188
f 16/188/188 11/153/153 15/154/154
f 16/188/188 15/154/154 20/187/187
f 20/187/187 15/154/154 19/155/155
f 20/187/187 19/155/155 24/186/186
f 24/186/186 19/155/155 23/156/156
f 24/186/186 23/156/156 28/185/185
f 28/185/185 23/156/156 27/157/157
f 28/185/185 27/157/157 32/184/184
f 32/184/184 27/157/157 31/158/158
f 32/184/184 31/158/158 36/183/183
f 36/183/183 31/158/158 35/159/159
f 36/183/183 35/159/159 40/182/182
f 40/182/182 35/159/159 39/160/160
f 40/182/182 39/160/160 44/181/181
f 44/181/181 39/160/160 43/161/161
f 44/181/181 43/161/161 48/180/180
f 48/180/180 43/161/161 47/162/162
f 48/180/180 47/162/162 52/179/179
f 52/179/179 47/162/162 51/163/163
f 52/179/179 51/163/163 56/178/178
f 56/178/178 51/163/163 55/164/164
f 56/178/178 55/164/164 60/177/177
f 60/177/177 55/164/164 59/165/165
f 60/177/177 59/165/165 64/176/176
f 64/176/176 59/165/165 63/166/166
f 64/176/176 63/166/166 68/175/175
f 68/175/175 63/166/166 67/167/167
f 68/175/175 67/167/167 72/174/174
f 72/174/174 67/167/167 71/168/168
f 72/174/174 71/168/168 76/173/173
f 76/173/173 71/168/168 75/169/169
f 76/173/173 75/169/169 80/172/172
f 80/172/172 75/169/169 79/170/170
f 80/172/172 79/170/170 83/171/171
# 88 vertices
# 190 texture params
# 190 normals
# 172 facets

# 1 groups
